<svg width="422" height="343" viewBox="0 0 422 343" fill="none" xmlns="http://www.w3.org/2000/svg">
<g clip-path="url(#clip0_272_6)">
<path d="M92.0005 138C91.5005 140 92.2005 145.2 99.0005 150C105.8 154.8 112.167 155.333 114.5 155H164C169.834 155.333 182.2 159.4 185 173C187.8 186.6 186.167 211.333 185 222C182.667 232.833 174 257.8 158 271L79.0005 326.5" stroke="#374E61" stroke-width="8" stroke-linecap="round"/>
<path d="M79.8531 63.4995H112.207C114.465 63.4993 116.698 63.9335 118.765 64.7744C120.831 65.6154 122.684 66.8446 124.207 68.3837C125.73 69.9227 126.889 71.7379 127.609 73.7133C128.33 75.6888 128.596 77.7812 128.392 79.857L123.216 132.357C122.849 136.084 120.987 139.55 117.993 142.074C115 144.598 111.093 145.998 107.039 146H22.9537C18.8997 145.998 14.9926 144.598 11.9996 142.074C9.00654 139.55 7.14373 136.084 6.77684 132.357L1.60122 79.857C1.25498 76.3829 2.23817 72.9066 4.37997 70.032L4.06309 63.4995C4.06309 59.5213 5.77514 55.706 8.82261 52.8929C11.8701 50.0799 16.0033 48.4995 20.3131 48.4995H50.1481C54.4575 48.5004 58.5901 50.0813 61.6368 52.8945L68.3643 59.1045C71.4111 61.9178 75.5437 63.4987 79.8531 63.4995ZM12.2368 64.3995C13.9756 63.8145 15.8443 63.4995 17.7943 63.4995H61.6368L55.8925 58.197C54.3691 56.7904 52.3028 55.9999 50.1481 55.9995H20.3131C18.1847 55.9992 16.1411 56.7697 14.6217 58.1456C13.1024 59.5214 12.2285 61.3927 12.1881 63.357L12.2368 64.3995Z" fill="#374E61"/>
<path d="M212 102.5V325" stroke="#74AE0D" stroke-width="8" stroke-linecap="round"/>
<path d="M371.854 63.5H404.207C406.465 63.4998 408.699 63.934 410.765 64.7749C412.831 65.6159 414.685 66.8451 416.208 68.3842C417.73 69.9232 418.889 71.7384 419.61 73.7138C420.33 75.6893 420.597 77.7817 420.392 79.8575L415.217 132.357C414.85 136.084 412.987 139.55 409.994 142.074C407.001 144.598 403.094 145.999 399.04 146H314.954C310.9 145.999 306.993 144.598 304 142.074C301.007 139.55 299.144 136.084 298.777 132.357L293.602 79.8575C293.255 76.3834 294.239 72.907 296.38 70.0325L296.064 63.5C296.064 59.5218 297.776 55.7064 300.823 52.8934C303.871 50.0804 308.004 48.5 312.314 48.5H342.149C346.458 48.5008 350.591 50.0818 353.637 52.895L360.365 59.105C363.412 61.9182 367.544 63.4992 371.854 63.5ZM304.237 64.4C305.976 63.815 307.845 63.5 309.795 63.5H353.637L347.893 58.1975C346.37 56.7909 344.303 56.0004 342.149 56H312.314C310.185 55.9996 308.142 56.7702 306.622 58.1461C305.103 59.5219 304.229 61.3932 304.189 63.3575L304.237 64.4Z" fill="#E38318"/>
<path d="M331.546 137C332.046 139 331.346 144.2 324.546 149C317.746 153.8 311.38 154.333 309.046 154H259.546C253.713 154.333 241.346 158.4 238.546 172C235.746 185.6 237.38 210.333 238.546 221C240.88 231.833 249.546 256.8 265.546 270L344.546 325.5" stroke="#E38318" stroke-width="8" stroke-linecap="round"/>
<path d="M211 105V200.5C209.334 216.167 201.7 253.7 184.5 278.5C167.3 303.3 149.667 320.833 143 326.5" stroke="#74AE0D" stroke-width="8" stroke-linecap="round"/>
<path d="M211.5 104.5V200C213.167 215.667 220.8 253.2 238 278C255.2 302.8 272.834 320.333 279.5 326" stroke="#CCCF0C" stroke-width="10" stroke-linecap="round"/>
<path d="M225.854 22.5H258.207C260.465 22.4998 262.699 22.934 264.765 23.7749C266.831 24.6159 268.685 25.8451 270.208 27.3842C271.73 28.9232 272.889 30.7384 273.61 32.7138C274.33 34.6893 274.597 36.7817 274.392 38.8575L269.217 91.3575C268.85 95.0844 266.987 98.55 263.994 101.074C261.001 103.598 257.094 104.999 253.04 105H168.954C164.9 104.999 160.993 103.598 158 101.074C155.007 98.55 153.144 95.0844 152.777 91.3575L147.602 38.8575C147.255 35.3834 148.239 31.907 150.38 29.0325L150.064 22.5C150.064 18.5218 151.776 14.7064 154.823 11.8934C157.871 9.08035 162.004 7.5 166.314 7.5H196.149C200.458 7.50085 204.591 9.08176 207.637 11.895L214.365 18.105C217.412 20.9182 221.544 22.4992 225.854 22.5ZM158.237 23.4C159.976 22.815 161.845 22.5 163.795 22.5H207.637L201.893 17.1975C200.37 15.7909 198.303 15.0004 196.149 15H166.314C164.185 14.9996 162.142 15.7702 160.622 17.1461C159.103 18.5219 158.229 20.3932 158.189 22.3575L158.237 23.4Z" fill="#74AE0D"/>
</g>
<defs>
<clipPath id="clip0_272_6">
<rect width="422" height="343" fill="white"/>
</clipPath>
</defs>
</svg>
